<?xml version="1.0" encoding="UTF-8"?>
<svg id="Layer_1" data-name="Layer 1" xmlns="http://www.w3.org/2000/svg" viewBox="0 0 393.91 356.52">
  <defs>
    <style>
      .cls-1 {
        fill: rgba(146, 200, 62, .7);
      }

      .cls-2 {
        fill: #005c27;
      }
    </style>
  </defs>
  <rect class="cls-1" width="393.91" height="356.52"/>
  <g>
    <path class="cls-2" d="M104.65,146.23c0-9.74,7.34-17.7,18.36-17.7,6.99,0,10.5,2.5,12.9,4.39l-2.8,5.66c-2.7-2.29-5.86-3.72-9.79-3.72-6.99,0-11.17,5.05-11.17,11.32s4.18,10.81,11.47,10.81c5.1,0,8.41-2.6,10.61-4.54l2.8,5.2c-1.84,2.04-6.48,5.66-13.92,5.66-12.6,0-18.46-7.9-18.46-17.08Z"/>
    <path class="cls-2" d="M167.63,150.16c0,7.14-5,13.05-13.72,13.05-8.26,0-13.77-5.35-13.77-13.05s5.61-13.16,13.77-13.16,13.72,5.46,13.72,13.16ZM146.87,150.16c0,3.82,2.5,7.5,7.04,7.5,4.23,0,6.99-3.37,6.99-7.5s-2.45-7.55-6.99-7.55-7.04,3.42-7.04,7.55Z"/>
    <path class="cls-2" d="M173.09,137.51h4.69l1.58,3.88h.2c1.84-3.21,4.33-4.39,7.96-4.39s6.73,1.38,7.96,4.59h.2c1.89-3.42,4.69-4.59,8.16-4.59,5.25,0,8.62,2.6,8.62,8.72v16.98h-6.68v-15.76c0-2.75-1.22-4.23-3.77-4.23-2.19,0-4.28.87-5.92,2.91v17.08h-6.63v-15.76c0-2.75-1.22-4.23-3.77-4.23-2.35,0-4.39.97-5.92,2.91v17.08h-6.68v-25.19Z"/>
    <path class="cls-2" d="M222.71,125.48c2.6,0,4.13,1.58,4.13,3.67s-1.53,3.67-4.13,3.67-4.08-1.53-4.08-3.67,1.48-3.67,4.08-3.67ZM219.4,162.7v-25.19h6.68v25.19h-6.68Z"/>
    <path class="cls-2" d="M239.9,162.7h-6.68v-25.19h4.69l1.58,3.98h.25c1.53-2.86,4.59-4.49,9.03-4.49,6.27,0,9.48,3.31,9.48,8.52v17.19h-6.63v-15.45c0-2.86-1.43-4.54-4.69-4.54s-5.66,1.78-7.04,3.77v16.22Z"/>
    <path class="cls-2" d="M263,166.93c0-2.09,1.07-4.49,3.88-5.1v-.05c-1.48-1.27-1.94-2.96-1.94-4.18,0-2.5,1.33-4.18,3.01-4.79v-.05c-2.4-1.48-3.62-3.93-3.62-6.99,0-5,4.9-8.77,10.66-8.77,3.67,0,6.68,1.12,8.47,3.06h.1c.56-2.7,2.65-3.57,5-3.57,1.12,0,1.99.31,1.99.31l-.46,5.15c-.25-.05-.82-.1-1.22-.1-1.84,0-3.01.71-3.67,1.43.31.77.46,1.63.46,2.5,0,5-3.88,8.72-10.66,8.72-1.48,0-2.7-.15-3.62-.46-.61.51-.87,1.27-.87,1.94,0,1.33.97,2.04,3.11,2.04h7.75c5.25,0,8.26,2.75,8.26,7.14,0,6.32-5.66,9.59-13.82,9.59-9.28,0-12.8-4.13-12.8-7.8ZM282.99,165.97c0-1.58-1.12-2.6-3.06-2.6h-6.88c-.61,0-1.17,0-1.63-.1-1.07.46-1.84,1.53-1.84,3.06,0,2.04,1.48,4.08,6.73,4.08,4.39,0,6.68-1.63,6.68-4.44ZM279.27,145.77c0-2.8-1.43-4.39-4.28-4.39-2.6,0-4.28,1.63-4.28,4.39,0,2.5,1.33,4.39,4.28,4.39s4.28-1.53,4.28-4.39Z"/>
    <path class="cls-2" d="M136.37,221.81l1.53-5.86c2.65,1.22,6.94,2.6,11.07,2.6,5.2,0,7.45-2.14,7.45-4.84,0-1.27-.61-2.29-1.78-2.91s-3.67-1.02-6.63-1.38c-3.31-.36-5.92-.97-7.9-2.09-3.01-1.68-4.13-4.54-4.13-7.39,0-5.92,5.46-10.2,13.56-10.2,4.74,0,8.77.97,11.88,2.4l-1.63,5.66c-2.45-1.02-6.48-2.04-10.05-2.04-5.05,0-6.63,2.14-6.63,4.18,0,1.07.41,2.09,1.84,2.8,1.38.61,3.57.87,6.43,1.28,3.11.41,5.97,1.02,7.75,2.04,2.91,1.63,4.28,4.23,4.28,7.6,0,6.12-4.69,10.86-13.87,10.86-5.35,0-9.74-1.02-13.16-2.7Z"/>
    <path class="cls-2" d="M194.51,211.36c0,7.14-5,13.05-13.72,13.05-8.26,0-13.77-5.35-13.77-13.05s5.61-13.16,13.77-13.16,13.72,5.46,13.72,13.16ZM173.75,211.36c0,3.83,2.5,7.5,7.04,7.5,4.23,0,6.99-3.37,6.99-7.5s-2.45-7.55-6.99-7.55-7.04,3.42-7.04,7.55Z"/>
    <path class="cls-2" d="M225.77,211.36c0,7.14-5,13.05-13.72,13.05-8.26,0-13.77-5.35-13.77-13.05s5.61-13.16,13.77-13.16,13.72,5.46,13.72,13.16ZM205.01,211.36c0,3.83,2.5,7.5,7.04,7.5,4.23,0,6.99-3.37,6.99-7.5s-2.45-7.55-6.99-7.55-7.04,3.42-7.04,7.55Z"/>
    <path class="cls-2" d="M237.91,223.9h-6.68v-25.19h4.69l1.58,3.98h.25c1.53-2.86,4.59-4.49,9.03-4.49,6.27,0,9.48,3.31,9.48,8.52v17.18h-6.63v-15.45c0-2.86-1.43-4.54-4.69-4.54s-5.66,1.79-7.04,3.77v16.22Z"/>
  </g>
</svg>