<?xml version="1.0" encoding="UTF-8"?>
<svg id="Layer_1" xmlns="http://www.w3.org/2000/svg" viewBox="0 0 1318.75 383">
  <defs>
    <style>
      .cls-1 {
        fill: #6dbe45;
      }

      .cls-2 {
        fill: #f57f22;
      }

      .cls-3 {
        fill: #93c840;
      }

      .cls-4 {
        fill: #d51e3d;
      }

      .cls-5 {
        fill: #f9a11e;
      }

      .cls-6 {
        fill: #035c30;
      }
    </style>
  </defs>
  <g>
    <path class="cls-6" d="M384.56,165.18c5.64,46.55.71,83.32-19.7,120.04-1.19,2.23-1.99,3.56-2.75,4.82-.15.25-.3.5-.45.75-.1.16-.19.33-.29.49-.07.12-.13.22-.2.34-8.58,14.88-20.24,29.06-34.32,41.62-18.58,16.81-40.62,30.01-64.86,38.53-3.93,1.38-7.9,2.63-11.89,3.76-16.55,4.75-34.09,7.43-52.26,7.48-15.44.05-31.33-1.79-47.45-5.85-5.14-1.28-10.23-2.78-15.27-4.49-2.19-.73-3.64-2.75-3.64-5.03v-.04c0-.57.08-7.6,2.37-18.24,2.3-10.64,6.81-24.89,15.7-39.88,10.42-17.59,24.71-32.56,42.49-44.5,22.04-14.81,49.49-24.94,81.58-30.12,44.63-7.2,75.64-24,89.72-48.57,4.6-8.03,6.69-15.63,7.59-21.6,0,0,.84-6.18,6.44-6.4,2.21-.09,6.4.58,7.17,6.88ZM362.05,266.84c11.44-25.24,15.9-51.24,13.84-81.32-.91,1.98-1.94,3.99-3.1,6.04-7.07,12.34-17.72,22.95-31.67,31.55-17.07,10.52-39.19,18.03-65.73,22.31-30.38,4.9-56.26,14.39-76.93,28.19-16.42,10.97-29.64,24.7-39.27,40.8-8.73,14.58-12.94,28.56-14.97,38.52,9.24-8.47,23.59-20.48,40.39-30.55,29.67-17.79,56.3-23.45,79.15-16.81,29.73,8.63,55.2,4.84,75.7-11.26,13.83-10.86,20.77-24.02,22.16-26.85.1-.21.21-.44.31-.66l.13.05ZM322.09,323.01c4.18-3.93,8.15-8.05,11.92-12.36-16.73,9-40.88,14.61-73.32,5.18-44.28-12.86-97.34,33.54-113.74,49.3,1.38.4,2.76.77,4.13,1.13.43.11.88.23,1.31.34.63.16,1.26.31,1.88.46,27.93,6.75,57.42,6.75,85.66.03,10.64-2.61,20.14-5.93,28.25-9.36,20.08-8.48,38.51-20.46,53.91-34.72Z"/>
    <path class="cls-1" d="M375.89,185.52c2.06,30.08-2.4,56.09-13.84,81.32l-.13-.05c-.11.22-.22.45-.31.66-1.39,2.83-8.33,15.99-22.16,26.85-20.5,16.11-45.97,19.89-75.7,11.26-22.85-6.64-49.48-.98-79.15,16.81-16.79,10.08-31.14,22.08-40.39,30.55,2.04-9.96,6.24-23.94,14.97-38.52,9.64-16.1,22.85-29.83,39.27-40.8,20.67-13.81,46.56-23.29,76.93-28.19,26.54-4.28,48.66-11.79,65.73-22.31,13.95-8.6,24.6-19.21,31.67-31.55,1.17-2.05,2.2-4.06,3.1-6.04Z"/>
    <path class="cls-3" d="M334.01,310.65c-3.77,4.31-7.75,8.43-11.92,12.36-15.4,14.26-33.83,26.24-53.91,34.72-8.11,3.43-17.61,6.75-28.25,9.36-28.24,6.72-57.73,6.71-85.66-.03-.62-.15-1.25-.3-1.88-.46-.43-.11-.88-.23-1.31-.34-1.37-.36-2.75-.73-4.13-1.13,16.4-15.76,69.46-62.16,113.74-49.3,32.44,9.43,56.59,3.81,73.32-5.18Z"/>
    <path class="cls-4" d="M282.15,23c1.89,1.85,3.39,3.5,2.83,7.1-.39,2.5-2.61,4.73-7.82,5.56-.32.05-.65.17-.97.23-1.99.42-11.88,2.88-29.38,13.52-12.75,7.74-22.85,17.24-30.26,28.4-7.4,11.15-12.12,23.97-14.08,38.38-.06.51-.13,1.01-.19,1.51-.14,1.2-.26,2.39-.37,3.6-.15,2.4-.27,5.92-.26,10.95.04,1.38.1,2.77.18,4.2.07,1.19.2,2.57.34,4.15,1.2,13.24,3.34,37.1-13.59,67.57-3.94,7.23-8.67,14.35-14.12,21.21-1.54,1.93-3.06,3.67-4.56,5.29-2.11,2.48-4.35,4.97-6.74,7.5l-.3.31c-2.05,2.17-4.27,4.53-6.71,7.63-3.26,4.34-6.82,9.82-10.88,17.42-2.53,4.9-5.26,10.79-8.21,17.99-.62,1.48-1.24,2.96-1.86,4.43-.31.75-.63,1.47-.93,2.21-2.9,7.6-5.41,14.84-7.55,21.55-4.94,15.97-8.71,30.62-11.45,44.48,0,0-.91,5.7-7.18,4.03-.33-.09-.64-.21-.95-.34-.48-.2-1.17-.5-1.25-.52-37.11-17.71-65.35-45.68-84.35-81.99C8.79,255.05,1.64,228.67.28,201.54c-.78-14.26.06-28.77,2.63-43.27.6-3.39,1.3-6.74,2.07-10.06,5.63-24.84,15.78-47.3,30.71-67.86,6.76-9.43,14.32-18.17,22.58-26.16,0-.02.02-.03.03-.04C100.78,13.05,161.5-8,223.8,2.81c22.3,3.86,36.98,7.78,54.07,17.07,1.56.84,3.01,1.88,4.28,3.12ZM241.48,40.09c10.22-6.16,20.11-10.12,27.73-12.6-14.26-6.34-30.6-11.25-47.28-14.14-10.48-1.81-20.91-2.68-31.21-2.65-47.37.14-91.83,19.2-124.73,50.99-.31.31-31.32,31.84-25.38,61.02,3.09,15.16,15.89,27.49,38.04,36.64,1.72.71,3.34,1.42,4.92,2.13,7.3,3.46,21.97,11.32,21.97,11.32,1-.67,3.13-1.45,3.13-1.45,1.84-.84,3.69-1.48,6.09-2.17,7.39-2.08,21.13-5.95,36.42.63l.14.06c.29.13,8.36,3.6,17.13-1.31,7.95-4.45,18.26-16.86,22.89-50.54.16-1.79.33-2.83.43-3.36,4.38-31.8,21.55-57.56,49.73-74.57ZM185.36,189.67c4.31-11.04,6.46-21.97,6.18-32.05-4.75,9.59-10.76,16.42-18.03,20.4-13.16,7.2-25.35,2.19-26.7,1.59-11.71-5.03-22.17-2.08-29.09-.13-.33.1-.65.19-.95.28,1.21.9,2.45,1.85,3.69,2.82,5.53,3.84,11.04,8.14,16.01,12.8,4.82,4.52,9.65,9.95,13.4,16.08,3.01,4.66,5.35,9.86,6.49,15.71l.03.12c.37,1.86.65,3.51.77,5.19.4-.42.78-.82,1.17-1.23,1.14-1.19,2.25-2.35,3.36-3.54,11.34-13.3,18.58-25.62,23.13-36.71.1-.24.2-.48.29-.71.09-.21.17-.41.25-.62ZM145.23,239.99c1.44-6.08.76-12.23-2.11-18.5-4.55-9.49-13.27-16.98-21.18-23.74l-1.73-1.48c-2.21-1.89-4.26-3.57-6.14-5.06-11.24-7.8-22.7-13.78-29.28-17.22-3.13-1.63-6.52-3.19-10.34-4.78-25.69-10.61-40.66-25.57-44.49-44.45-.8-3.97-1.08-8.1-.86-12.38-5.81,11.91-10.38,24.6-13.51,37.95-.81,3.55-1.53,7.15-2.14,10.81-2.24,13.34-3.02,26.67-2.37,39.81.03.5.06,1.01.09,1.51.02.28.04.56.06.84,4.11,60.99,39.43,116.95,94.71,145.99,1.78-8.57,5.46-24.19,11.93-43.56.74-2.33,1.51-4.68,2.3-7.06,1.06-3.19,2.28-6.29,3.55-9.3,5.03-13.26,11.25-27.66,18.9-42.38.03-.06.05-.13.09-.2,1.15-2.76,1.96-4.96,2.52-6.79Z"/>
    <path class="cls-5" d="M269.22,27.49c-7.63,2.48-17.52,6.44-27.73,12.6-28.18,17-45.35,42.77-49.73,74.57-.11.54-.27,1.57-.43,3.36-4.63,33.68-14.94,46.09-22.89,50.54-8.77,4.91-16.84,1.44-17.13,1.31l-.14-.06c-15.29-6.58-29.04-2.71-36.42-.63-2.41.69-4.26,1.33-6.09,2.17,6.73-53.72,30.61-75.69,53.83-94.72,8.63-7.06,9.57-12.36,5.52-17.51-7.48-9.49-23.04,3.32-23.04,3.32-13.53,10.17-37.2,31.07-51.54,65.34-5.34,12.78-8.27,23.59-9.86,33.7-1.57-.72-3.2-1.43-4.92-2.13-22.15-9.14-34.95-21.48-38.04-36.64-5.94-29.18,25.07-60.7,25.38-61.02C98.89,29.89,143.35,10.84,190.72,10.7c10.3-.03,20.73.84,31.21,2.65,16.68,2.89,33.02,7.8,47.28,14.14Z"/>
    <path class="cls-2" d="M191.54,157.61c.27,10.09-1.88,21.02-6.18,32.05-.08.21-.16.41-.25.62-.09.23-.19.47-.29.71-4.55,11.09-11.79,23.41-23.13,36.71-1.11,1.19-2.21,2.35-3.36,3.54-.39.41-.77.81-1.17,1.23-.12-1.68-.41-3.33-.77-5.19l-.03-.12c-1.15-5.86-3.48-11.05-6.49-15.71-3.75-6.13-8.57-11.56-13.4-16.08-4.97-4.67-10.48-8.96-16.01-12.8-1.24-.98-2.48-1.93-3.69-2.82.3-.09.61-.18.95-.28,6.92-1.95,17.38-4.9,29.09.13,1.36.6,13.55,5.61,26.7-1.59,7.26-3.98,13.28-10.81,18.03-20.4Z"/>
    <path class="cls-4" d="M168,59.12c4.05,5.14,3.12,10.44-5.52,17.51-23.22,19.02-47.1,41-53.83,94.72,0,0-2.13.78-3.13,1.45,0,0-14.66-7.86-21.97-11.32,1.59-10.11,4.52-20.92,9.86-33.7,14.34-34.27,38.01-55.17,51.54-65.34,0,0,15.56-12.81,23.04-3.32Z"/>
    <path class="cls-2" d="M143.12,221.49c2.86,6.27,3.55,12.42,2.11,18.5-.56,1.83-1.38,4.04-2.52,6.79-.04.06-.06.13-.09.2-7.64,14.72-13.86,29.13-18.9,42.38-1.26,3.02-2.49,6.12-3.55,9.3-.79,2.38-1.56,4.73-2.3,7.06-6.47,19.37-10.15,34.99-11.93,43.56-55.28-29.04-90.6-85-94.71-145.99-.02-.28-.04-.56-.06-.84-.03-.5-.06-1.01-.09-1.51-.65-13.14.13-26.47,2.37-39.81.61-3.66,1.33-7.25,2.14-10.81,3.14-13.35,7.7-26.05,13.51-37.95-.22,4.28.06,8.42.86,12.38,3.83,18.88,18.8,33.83,44.49,44.45,3.82,1.58,7.21,3.14,10.34,4.78,6.58,3.44,18.04,9.42,29.28,17.22,1.87,1.48,3.93,3.16,6.14,5.06l1.73,1.48c7.9,6.76,16.62,14.25,21.18,23.74Z"/>
  </g>
  <g>
    <path class="cls-4" d="M489.68,172.82v90.78h58.82v21.08h-82.62v-111.86h23.8Z"/>
    <path class="cls-4" d="M573.15,160.58c8.67,0,13.77,5.27,13.77,12.24s-5.1,12.24-13.77,12.24-13.6-5.1-13.6-12.24,4.93-12.24,13.6-12.24ZM562.1,284.68v-83.98h22.27v83.98h-22.27Z"/>
    <path class="cls-4" d="M608.16,155.48h22.27v129.2h-22.27v-129.2Z"/>
    <path class="cls-4" d="M660.18,323.61l-1.53-18.36c.68.17,4.42,1.02,7.99,1.02,6.63,0,10.2-2.72,13.26-10.88l3.91-10.37v-.34h-4.42l-35.53-83.98h23.8l17.34,40.8c2.89,6.46,6.46,19.21,6.46,19.21h.51l22.1-60.01h23.29l-36.21,99.96c-6.12,16.83-14.28,24.14-31.45,24.14-4.25,0-8.67-1.02-9.52-1.19Z"/>
    <path class="cls-4" d="M828.65,172.82c49.13,0,67.32,24.31,67.32,55.76,0,37.4-21.76,56.1-60.52,56.1h-42.16v-111.86h35.36ZM817.09,263.6h18.7c24.65,0,36.21-10.54,36.21-35.02,0-19.21-10.03-34.68-39.61-34.68h-15.3v69.7Z"/>
    <path class="cls-4" d="M908.04,244.56c0-28.73,15.47-45.56,42.5-45.56,24.31,0,35.7,12.58,35.7,30.94,0,6.63-1.19,13.43-1.7,15.98h-54.4c.17,14.96,6.8,22.61,22.44,22.61,11.56,0,22.27-3.4,28.73-6.97l3.91,16.15c-5.44,3.74-17.34,8.67-34.34,8.67-26.01,0-42.84-14.45-42.84-41.82ZM930.82,231.64h33.32s.17-1.87.17-4.76c0-6.97-3.91-11.73-14.28-11.73-12.07,0-17.51,5.44-19.21,16.49Z"/>
    <path class="cls-4" d="M1000.52,279.58l4.93-17.51c4.08,1.7,15.64,6.63,29.41,6.63,11.9,0,16.66-4.93,16.66-10.37,0-2.55-1.02-5.1-4.42-6.46-2.55-1.02-7.82-1.7-15.64-2.72-11.05-1.53-17.68-3.57-22.44-6.8-5.1-3.4-8.33-9.52-8.33-17,0-14.62,12.07-26.35,36.38-26.35,14.62,0,26.52,3.91,31.79,6.46l-5.44,17c-5.78-2.72-15.64-5.61-26.01-5.61-10.88,0-14.96,3.74-14.96,8.5,0,2.21,1.19,4.42,3.91,5.44,2.72,1.19,7.99,1.87,15.3,2.89,8.84,1.19,15.47,2.55,20.4,5.1,7.31,3.74,11.39,10.54,11.39,19.38,0,15.3-12.41,28.22-37.57,28.22-15.47,0-30.09-4.25-35.36-6.8Z"/>
    <path class="cls-4" d="M1102.52,160.58c8.67,0,13.77,5.27,13.77,12.24s-5.1,12.24-13.77,12.24-13.6-5.1-13.6-12.24,4.93-12.24,13.6-12.24ZM1091.47,284.68v-83.98h22.27v83.98h-22.27Z"/>
    <path class="cls-4" d="M1130.23,298.79c0-6.97,3.57-14.96,12.92-17v-.17c-4.93-4.25-6.46-9.86-6.46-13.94,0-8.33,4.42-13.94,10.03-15.98v-.17c-7.99-4.93-12.07-13.09-12.07-23.29,0-16.66,16.32-29.24,35.53-29.24,12.24,0,22.27,3.74,28.22,10.2h.34c1.87-9.01,8.84-11.9,16.66-11.9,3.74,0,6.63,1.02,6.63,1.02l-1.53,17.17c-.85-.17-2.72-.34-4.08-.34-6.12,0-10.03,2.38-12.24,4.76,1.02,2.55,1.53,5.44,1.53,8.33,0,16.66-12.92,29.07-35.53,29.07-4.93,0-9.01-.51-12.07-1.53-2.04,1.7-2.89,4.25-2.89,6.46,0,4.42,3.23,6.8,10.37,6.8h25.84c17.51,0,27.54,9.18,27.54,23.8,0,21.08-18.87,31.96-46.07,31.96-30.94,0-42.67-13.77-42.67-26.01ZM1196.87,295.56c0-5.27-3.74-8.67-10.2-8.67h-22.95c-2.04,0-3.91,0-5.44-.34-3.57,1.53-6.12,5.1-6.12,10.2,0,6.8,4.93,13.6,22.44,13.6,14.62,0,22.27-5.44,22.27-14.79ZM1184.46,228.24c0-9.35-4.76-14.62-14.28-14.62-8.67,0-14.28,5.44-14.28,14.62,0,8.33,4.42,14.62,14.28,14.62s14.28-5.1,14.28-14.62Z"/>
    <path class="cls-4" d="M1257.56,284.68h-22.27v-83.98h15.64l5.27,13.26h.85c5.1-9.52,15.3-14.96,30.09-14.96,20.91,0,31.62,11.05,31.62,28.39v57.29h-22.1v-51.51c0-9.52-4.76-15.13-15.64-15.13s-18.87,5.95-23.46,12.58v54.06Z"/>
  </g>
</svg>